/* XPM */
static char *_7e943da03e54a0c811a65e049535738[] = {
/* columns rows colors chars-per-pixel */
"16 16 24 1 ",
"  c black",
". c #010101",
"X c #020101",
"o c #010201",
"O c #020201",
"+ c #020202",
"@ c #040100",
"# c #070200",
"$ c #050402",
"% c #090200",
"& c gray8",
"* c #8C350D",
"= c #9B390C",
"- c #DC5212",
"; c #E65512",
": c #E75512",
"> c #E65612",
", c #E75612",
"< c #E65613",
"1 c #E85612",
"2 c #EB6B21",
"3 c #C3C3C2",
"4 c gray100",
"5 c None",
/* pixels */
"55555 1111 55555",
"555 ,,1,,111%555",
"551,<1   *,<1@55",
"5%,1$ <,<, +,1 5",
"5,  $+44, +$ $<5",
" 1 , < 4,4&   < ",
"11 ,+<41,44   11",
"11 , <4,44$ +@11",
"1< 1 ,4,,43+ +11",
"1< < 24444 ++ 11",
"@1+< <+4  $   1 ",
"5$ = -    +++$15",
"5@11,,,;,,<<11 5",
"55111,,,,,111 55",
"555 1111,111 555",
"55555 1111 55555"
};
