/* XPM */
static char *bb6aeb70cefd49dab9a82add48a28aea[] = {
/* columns rows colors chars-per-pixel */
"64 64 129 2 ",
"   c black",
".  c #010000",
"X  c #010100",
"o  c #010101",
"O  c #020000",
"+  c #020100",
"@  c #020101",
"#  c #010201",
"$  c #020201",
"%  c #010102",
"&  c #010202",
"*  c #020202",
"=  c #040100",
"-  c #050100",
";  c #050201",
":  c #040202",
">  c #060202",
",  c #070701",
"<  c #050502",
"1  c #060402",
"2  c #070502",
"3  c #070707",
"4  c #0A0400",
"5  c #090502",
"6  c #0C0600",
"7  c #0E0E01",
"8  c gray4",
"9  c #0B0B0B",
"0  c #110A01",
"q  c #1A0E04",
"w  c #1E0F06",
"e  c #191105",
"r  c #191006",
"t  c #101010",
"y  c #251407",
"u  c #2A1509",
"i  c #2D1709",
"p  c #2F1709",
"a  c gray15",
"s  c #52230A",
"d  c #422F1C",
"f  c #60260A",
"g  c #62280A",
"h  c #62280B",
"j  c #60280C",
"k  c #7F310C",
"l  c #555554",
"z  c #5D5F5F",
"x  c #81310B",
"c  c #82320B",
"v  c #86330A",
"b  c #86380F",
"n  c #963C0F",
"m  c #9F3F10",
"M  c #A13D0F",
"N  c #9F4010",
"B  c #AF400D",
"V  c #B9410E",
"C  c #B84711",
"Z  c #C0440E",
"A  c #C8470E",
"S  c #CA4A0F",
"D  c #CD490E",
"F  c #CE480F",
"G  c #D64B0F",
"H  c #D74C0F",
"J  c #D84C0F",
"K  c #D94D0F",
"L  c #DB4D0F",
"P  c #D94F0F",
"I  c #DB4F0F",
"U  c #D45011",
"Y  c #DD5010",
"T  c #DC5111",
"R  c #DC5211",
"E  c #DD5211",
"W  c #DD5311",
"Q  c #DF5311",
"!  c #DD5312",
"~  c #DD5411",
"^  c #E05311",
"/  c #E15312",
"(  c #E25611",
")  c #E25512",
"_  c #E35512",
"`  c #E35613",
"'  c #E55412",
"]  c #E55512",
"[  c #E65512",
"{  c #E75512",
"}  c #E65612",
"|  c #E75612",
" . c #E85512",
".. c #E85612",
"X. c #E85712",
"o. c #E85613",
"O. c #E85713",
"+. c #E85714",
"@. c #E85814",
"#. c #E85914",
"$. c #E85A15",
"%. c #E85C18",
"&. c #E85D18",
"*. c #EA611A",
"=. c #EA641B",
"-. c #EA621D",
";. c #E8661C",
":. c #EA671E",
">. c #FA711A",
",. c #FA751A",
"<. c #EA6522",
"1. c #EA6C22",
"2. c #EA6F26",
"3. c #EC7A2F",
"4. c #E77234",
"5. c #FA8C29",
"6. c #ED8034",
"7. c #83858A",
"8. c #898988",
"9. c gray61",
"0. c #9C9E9F",
"q. c #F9DFD0",
"w. c #FBF4EB",
"e. c #F4F6F4",
"r. c #F9FAFA",
"t. c #FEFBFB",
"y. c #FEFEFE",
"u. c gray100",
"i. c None",
/* pixels */
"i.i.i.i.i.i.i.i.i.i.i.i.i.i.i.i.i.i.i.i.i.i.i.i.i.i.i.                  i.i.i.i.i.i.i.i.i.i.i.i.i.i.i.i.i.i.i.i.i.i.i.i.i.i.i.i.",
"i.i.i.i.i.i.i.i.i.i.i.i.i.i.i.i.i.i.i.i.i.i.i.      ......................      i.i.i.i.i.i.i.i.i.i.i.i.i.i.i.i.i.i.i.i.i.i.i.i.",
"i.i.i.i.i.i.i.i.i.i.i.i.i.i.i.i.i.i.i.i.    ......................................    i.i.i.i.i.i.i.i.i.i.i.i.i.i.i.i.i.i.i.i.i.",
"i.i.i.i.i.i.i.i.i.i.i.i.i.i.i.i.i.    ................| | ..| | ..| | | ....<...........    i.i.i.i.i.i.i.i.i.i.i.i.i.i.i.i.i.i.",
"i.i.i.i.i.i.i.i.i.i.i.i.i.i.i.    ..........| ....| ..............| ............+.#.........    i.i.i.i.i.i.i.i.i.i.i.i.i.i.i.i.",
"i.i.i.i.i.i.i.i.i.i.i.i.i.i.  ..........| | ..| ....| | | ............| ........................  i.i.i.i.i.i.i.i.i.i.i.i.i.i.i.",
"i.i.i.i.i.i.i.i.i.i.i.i.    ......| | ..........| | | | | | | ..| ' | ' | | | ..| ....| ..........f   i.i.i.i.i.i.i.i.i.i.i.i.i.",
"i.i.i.i.i.i.i.i.i.i.i.    ....| | ........ .' | ..| | | | | ) n ' | | | ' | | | ............| ....../ - i.i.i.i.i.i.i.i.i.i.i.i.",
"i.i.i.i.i.i.i.i.i.i.  ......| | ......| | | ....| +.#.} b : :     p } +.+.| | | ' | ' | ....| ..........- i.i.i.i.i.i.i.i.i.i.i.",
"i.i.i.i.i.i.i.i.i.  ........| | | | | | | | | +...} u & : :       : :   } } | | | ' ' | | ....| ..........  i.i.i.i.i.i.i.i.i.i.",
"i.i.i.i.i.i.i.i.  ....| ....| | | | | | ' | ..}   : &     :     :     : : : ` #...' | ' | ' | | ............  i.i.i.i.i.i.i.i.i.",
"i.i.i.i.i.i.i.  ....| ....| ....| | ..| | !           :   : G | : : :         1 m | ....' | | | | | ..........  i.i.i.i.i.i.i.i.",
"i.i.i.i.i.i.  ....+.......| | | @.} } j &   :   : :   : ' | | ..} }     :         : u } } } | | | | | | ........  i.i.i.i.i.i.i.",
"i.i.i.i.i.i.  ......| | | | ..| } y : : : :       : ` } ....y.y.} } | | : :         : : : } ..#.| | | ..........  i.i.i.i.i.i.i.",
"i.i.i.i.i.4 ..........| ..+.'   &     &   :   : ' +.} } | ..y.y.} ' ..1.} | v   :   :     : : ! ..' | ' ..........  i.i.i.i.i.i.",
"i.i.i.i.  ............| U 1     :   :   : B ' ....' } } | +.y.y.+.' ..y.y.-.| | A :   : :     :   m | ..............  i.i.i.i.i.",
"i.i.i.i.4 ......@.} s & & :   *   *   } } +...| y.y.| ..| y.y.y.| | | y.y.| ....} } H &   : :       : : } +.+...| ..M i.i.i.i.i.",
"i.i.i.  ........r &     :   *   * | | } } } | y.y.y.y.y.y.y.y...| | ..y.y.| | ..} } } } H &   :   :   : & & | | ..| ..  i.i.i.i.",
"i.i.i...#.! w   :   :   * * * * * * *           y.y.y.y.y.y.y.y.y.;.y.y.y.            * & * :   &   :   :   : 1 | | ....i.i.i.i.",
"i.i.  ....w       :   :   c c         * & ! :   1   y.y.y.y.y.y.y.y.y.y.y.y.0.  : : *   *     1 S :   :   :   & C | ....- i.i.i.",
"i.i.  %.....|   :   :     } `   :   :   1 } :     : y.y.y.y.y.y.y.y.y.y.y.y.y.y.5.    :   &   & I   :   :     } ........0 i.i.i.",
"i.  ........} :   :   :   } P :   :   : & } : : 1   y.y.y.y.y.| | 2.y.y.y.y.y.y.y.: :   &   & & J     :   & : P ........%.  i.i.",
"i.  ....+.} } : :   :   : } J   :   :   : } :     9 y.y.y.y.| ' | | | 3.y.y.y.y.y.y.*     :   & J   :   :   : ! ........+.  i.i.",
"i.  ......} } :   :   :   } J :   :     : ` : :   a y.y.y.y.| | | | | | ..y.y.y.y.y.&   :   : & I :   :   :   ! ..| ......  i.i.",
"  ..%.......' :     :     +.J   :   :   : } :   : y.y.y.y.y.| | ) | } } } y.y.y.y.y.8   <   : & J :   &       ! ............  i.",
"  ..........|     :   :   } J     :   : : } :   : y.y.y.y.| | | | | } } } y.y.y.y.y.8   :     & J   :   & -   ! ............  i.",
"  ........../ : &   :     +.J   :   :   & +.&   9 y.y.y.y...| | | } ' } +.y.y.y.y.y.8 *   :   & P     1   1   ! ............  i.",
"  ......+.} } :   &   :   #.J &   :   : & } & &   y.y.y.y.y.y.4.;.} 3.y.y.y.y.y.y.y.    &   : & J : &   &     ! ............  i.",
"..-.........} : & * *   * | J   &     * & } :   y.y.y.y.y.y.y.y.y.y.y.y.y.y.y.y.y.    * :   : : J :   &   &   ! ..............i.",
"..#.........} : *   *     | J     : *   : } , : y.y.y.y.y...y.y.y.y.y.y.y.y.y.y.,.* *     :   : P   &   :   & ! ..............i.",
"....| ......| :   * * *   | H   & *   * : | 7 9 y.y.y.y.| | | ..#.y.y.y.y.y.y.y.>.* :   :     1 J &   &   1   / ..............i.",
"............|   *   *     @.J   *   *   : ` ,   y.y.y.y...| | ' ..| ..y.y.y.y.y.y.&   :   :     !   &         | ..| ..........i.",
"..........+./ : :   :   : } H   :   :     | < r.y.y.y.y.| ' | ..| ..| | y.y.y.y.y.0.  &   1 : : H &   & :   : } } +...........i.",
"..........} } :   :   :   } H :   :   1 & | d y.y.y.y.| | | ' | | ..' | y.y.y.y.y.y.    &     : H   * *   :   } ..+...........i.",
"............} : :   :   : } H   &     8.y.q.y.y.y.y.y...' | | | | | | ' y.y.y.y.y.y.  1 * &   : P *   * :     ' ..| ..........i.",
"............} :   :   :   ' H :   &   y.y.y.y.y.y.y.y.| | ' | | | | | | y.y.y.y.y.y.:       1 : P   * *   :   ` ..............i.",
"6 ..........| : :   :     } H   &   y.y.y.y.y.y.y.y.y.y.=...| | | | ..y.y.y.y.y.y.e.  &   :   : P     :   & : } ............  i.",
"  ..........|     :   : : } H :   &     y.y.y.y.y.y.y.y.y.y.y.y.w.y.y.y.y.y.y.y.y.1     &   : : J     < &     } ............  i.",
"  ..........} & :   :     } H   :   1   1 ` 1 1 y.y.y.y.y.y.y.y.y.y.y.y.y.y.y.y.y.    &   & & 1 J             } ............  i.",
"  ......+.+.} &   :   : : } J :   :   : & }     y.y.  l y.y.y.y.y.y.y.y.y.y.y.y.#.& &   &     & J - & * & < : } ............  i.",
"i...........|     * * *   } J   &     * & }     y.y.  & 1 y.y.y.y.y.y.y.y.y.z   #.:     *     & J   :   :   : } ............i.i.",
"i.  ........} : *   *     | H :   & *   & } < y.y.y.      y.y.....S 1   & &     +.-   : :   & & J :   :   :   } ..........  i.i.",
"i.  ....+.} } :   * :     } J   & *   * : }   y.y.  : : t y.y.| ..V   : *     * #.& :     :   : P : :   :     } ..........  i.i.",
"i.i.......} } :   * * : * } J   *   *   : } : 7.y.:     y.y.y.| ..C :     * *   +.&   : &   : : J     :   :   ! ..........i.i.i.",
"i.i.  ..+...|   :   :     | H : :   :   : }       : : : y.y.} } ..Z :   :     * ..    :   : & 1 J   &   :   : ! ........  i.i.i.",
"i.i.  ......+.    :   :   ! H     :   : : } : : :     : c } } } ..F   :   : *   #.  :   :     & P &   &   :   } ........  i.i.i.",
"i.i.i.  +.1 -   :     :   : 1 : &   :     j   : :       : : : : - :     : *   * -     :   :   & r : 1   :     : 4 #...g i.i.i.i.",
"i.i.i.  +.  : & & & & : : : & & & & & & & : : : : : : : : : :   : : : : & & & & : : & & & & & & : : 1 & : : : : - ....  i.i.i.i.",
"i.i.i.i.  ..| ....| | | | ' | ' | ' | ' | ' | ' | ' | ' | ' | ' ' | ' | ' | ' | ' | ' | ' | ' | ` | | | | | | ..+...  i.i.i.i.i.",
"i.i.i.i.  ........| +...| | ........| ..................| | | ................................| | | | | ....| | ....  i.i.i.i.i.",
"i.i.i.i.i.  ............' | | ' | ' | | | ' | ' | ' | ' | ' ' | | ' | ' | ' | ' | ' | ' | ' | ' | ..| | ..........  i.i.i.i.i.i.",
"i.i.i.i.i.i.- ..................| | | ..' | ' | ' | ' | | ' | ' ' | ' | ' | ' | ' | ' | ' | ' | ................  i.i.i.i.i.i.i.",
"i.i.i.i.i.i.i.  ........| ....| ....| | ........| | | | | | ' | | | ' | | ' | ' | ' | ' | | | | ..............  i.i.i.i.i.i.i.i.",
"i.i.i.i.i.i.i.i.  ..........| ..........| | ..| ....' | | ' | | | ' | ' ' | ' | ' | ' | ....| | ............  i.i.i.i.i.i.i.i.i.",
"i.i.i.i.i.i.i.i.    ..............| ........| ....| ....| | |  . ...| | | ..| ............................    i.i.i.i.i.i.i.i.i.",
"i.i.i.i.i.i.i.i.i.    ................| ........| ......| | ................| ..........................    i.i.i.i.i.i.i.i.i.i.",
"i.i.i.i.i.i.i.i.i.i.i.  ..................| | ................................| ......................  i.i.i.i.i.i.i.i.i.i.i.i.",
"i.i.i.i.i.i.i.i.i.i.i.i.  ..........................................................................  i.i.i.i.i.i.i.i.i.i.i.i.i.",
"i.i.i.i.i.i.i.i.i.i.i.i.i.    ..................................................................    i.i.i.i.i.i.i.i.i.i.i.i.i.i.",
"i.i.i.i.i.i.i.i.i.i.i.i.i.i.i.  ..............................................................  i.i.i.i.i.i.i.i.i.i.i.i.i.i.i.i.",
"i.i.i.i.i.i.i.i.i.i.i.i.i.i.i.i.    ......................................................    i.i.i.i.i.i.i.i.i.i.i.i.i.i.i.i.i.",
"i.i.i.i.i.i.i.i.i.i.i.i.i.i.i.i.i.i.      ..........................................      i.i.i.i.i.i.i.i.i.i.i.i.i.i.i.i.i.i.i.",
"i.i.i.i.i.i.i.i.i.i.i.i.i.i.i.i.i.i.i.i.i.      ..............................      i.i.i.i.i.i.i.i.i.i.i.i.i.i.i.i.i.i.i.i.i.i.",
"i.i.i.i.i.i.i.i.i.i.i.i.i.i.i.i.i.i.i.i.i.i.i.i.i.                          i.i.i.i.i.i.i.i.i.i.i.i.i.i.i.i.i.i.i.i.i.i.i.i.i.i."
};
