/* XPM */
static char *_458bda6092743dcd6db8898292f2fc9[] = {
/* columns rows colors chars-per-pixel */
"32 32 45 1 ",
"  c black",
". c #010101",
"X c #020000",
"o c #020101",
"O c #010201",
"+ c #020201",
"@ c #010202",
"# c #020202",
"$ c #040202",
"% c #070400",
"& c #0B0600",
"* c #090909",
"= c gray4",
"- c #0D0D0E",
"; c #110F02",
": c #200F04",
"> c #3A1907",
", c #471D08",
"< c #5F250A",
"1 c #672E0D",
"2 c gray26",
"3 c #80300B",
"4 c #A33F0E",
"5 c #AA4310",
"6 c #D74B0F",
"7 c #D84C0F",
"8 c #D94D0F",
"9 c #D45011",
"0 c #E25412",
"q c #E55412",
"w c #E65512",
"e c #E75512",
"r c #E65612",
"t c #E75612",
"y c #E85512",
"u c #E85612",
"i c #E85712",
"p c #E85613",
"a c #E85713",
"s c #E85915",
"d c #E8651B",
"f c #C66820",
"g c #EE8137",
"h c gray100",
"j c None",
/* pixels */
"jjjjjjjjjjjj  uuuu  jjjjjjjjjjjj",
"jjjjjjjjj uuuuutuuuuuu jjjjjjjjj",
"jjjjjjj uuttttutttuuuuuu jjjjjjj",
"jjjjjj utttputututttuuuuu,jjjjjj",
"jjjjjuututtpa5   #aaatuuuu:jjjjj",
"jjjjuutttpu  #      uqtauuu jjjj",
"jjj uutup#   8thau   #9atttu jjj",
"jj uuut $ #qaathpahu#  # tuuujjj",
"jjuu1#  #asuhhththhuia## ##aaujj",
"j u # ###   *hhhhhh  #  #  #4a j",
"jtut $ <##$  hhtdhhhh $#8 ##uu&j",
"jptt# #<# ## hhttthhh  #8# #uuuj",
" utq  #<### =hhtttthh # 8# #uuuj",
"uutt $ <####hhhttthhh # 8#$#uuu ",
"uuut # < ## hhhhhhhhf  #7 $#uuu ",
"uuut# #<####hhutthhhh # 8   uuu ",
"uttt   <$ ;-hhtttthhh  $8# #suu ",
"uttt#  <  hhhgttt0hhh   8###uuu ",
"uuut # <##hhhhhhthhhh  #8  #uuu ",
"$tua#  <#   h2hhhhhhs # 8  $uuuj",
"juut# #< ###h  hu $#a  #8###uuuj",
"juut # 1$###h#hta  #a $ 8# #uu j",
"j st # 3# # # 8uu $ a# #7  $uu j",
"jj0 # ## # #       #  # #   $ujj",
"jj uuuuuuuuttutuuuuuttutsuuuujjj",
"jjj>uuutuuttqttqqtqtqtttuuuu jjj",
"jjjjuuutuuuuutqttqtqtqttuuu jjjj",
"jjjjjuuuuuuuuuuuuuuuuuuuuu jjjjj",
"jjjjjj uuuuuuuuuuuuuuuuuu jjjjjj",
"jjjjjjj uuuuuuuuuuuuuuuu jjjjjjj",
"jjjjjjjjj uuuuuuuuuuuu jjjjjjjjj",
"jjjjjjjjjjjj  uuuu  jjjjjjjjjjjj"
};
